<svg width="174" height="49" viewBox="0 0 174 49" fill="none" xmlns="http://www.w3.org/2000/svg">
<rect width="174" height="49" rx="4" fill="#1F2029"/>
<path d="M51.8008 30.2344V15H55.1992V33H52.1406L51.8008 30.2344ZM43.7852 26.8125V26.5664C43.7852 25.5977 43.8945 24.7188 44.1133 23.9297C44.332 23.1328 44.6523 22.4492 45.0742 21.8789C45.4961 21.3086 46.0156 20.8672 46.6328 20.5547C47.25 20.2422 47.9531 20.0859 48.7422 20.0859C49.4844 20.0859 50.1328 20.2422 50.6875 20.5547C51.25 20.8672 51.7266 21.3125 52.1172 21.8906C52.5156 22.4609 52.8359 23.1367 53.0781 23.918C53.3203 24.6914 53.4961 25.5391 53.6055 26.4609V27C53.4961 27.8828 53.3203 28.7031 53.0781 29.4609C52.8359 30.2188 52.5156 30.8828 52.1172 31.4531C51.7266 32.0156 51.25 32.4531 50.6875 32.7656C50.125 33.0781 49.4688 33.2344 48.7188 33.2344C47.9297 33.2344 47.2266 33.0742 46.6094 32.7539C46 32.4336 45.4844 31.9844 45.0625 31.4062C44.6484 30.8281 44.332 30.1484 44.1133 29.3672C43.8945 28.5859 43.7852 27.7344 43.7852 26.8125ZM47.1602 26.5664V26.8125C47.1602 27.3359 47.1992 27.8242 47.2773 28.2773C47.3633 28.7305 47.5 29.1328 47.6875 29.4844C47.8828 29.8281 48.1328 30.0977 48.4375 30.293C48.75 30.4805 49.1289 30.5742 49.5742 30.5742C50.1523 30.5742 50.6289 30.4453 51.0039 30.1875C51.3789 29.9219 51.6641 29.5586 51.8594 29.0977C52.0625 28.6367 52.1797 28.1055 52.2109 27.5039V25.9688C52.1875 25.4766 52.1172 25.0352 52 24.6445C51.8906 24.2461 51.7266 23.9062 51.5078 23.625C51.2969 23.3438 51.0312 23.125 50.7109 22.9688C50.3984 22.8125 50.0273 22.7344 49.5977 22.7344C49.1602 22.7344 48.7852 22.8359 48.4727 23.0391C48.1602 23.2344 47.9062 23.5039 47.7109 23.8477C47.5234 24.1914 47.3828 24.5977 47.2891 25.0664C47.2031 25.5273 47.1602 26.0273 47.1602 26.5664ZM64.6797 30.1406V24.4922C64.6797 24.0859 64.6133 23.7383 64.4805 23.4492C64.3477 23.1523 64.1406 22.9219 63.8594 22.7578C63.5859 22.5938 63.2305 22.5117 62.793 22.5117C62.418 22.5117 62.0938 22.5781 61.8203 22.7109C61.5469 22.8359 61.3359 23.0195 61.1875 23.2617C61.0391 23.4961 60.9648 23.7734 60.9648 24.0938H57.5898C57.5898 23.5547 57.7148 23.043 57.9648 22.5586C58.2148 22.0742 58.5781 21.6484 59.0547 21.2812C59.5312 20.9062 60.0977 20.6133 60.7539 20.4023C61.418 20.1914 62.1602 20.0859 62.9805 20.0859C63.9648 20.0859 64.8398 20.25 65.6055 20.5781C66.3711 20.9062 66.9727 21.3984 67.4102 22.0547C67.8555 22.7109 68.0781 23.5312 68.0781 24.5156V29.9414C68.0781 30.6367 68.1211 31.207 68.207 31.6523C68.293 32.0898 68.418 32.4727 68.582 32.8008V33H65.1719C65.0078 32.6562 64.8828 32.2266 64.7969 31.7109C64.7188 31.1875 64.6797 30.6641 64.6797 30.1406ZM65.125 25.2773L65.1484 27.1875H63.2617C62.8164 27.1875 62.4297 27.2383 62.1016 27.3398C61.7734 27.4414 61.5039 27.5859 61.293 27.7734C61.082 27.9531 60.9258 28.1641 60.8242 28.4062C60.7305 28.6484 60.6836 28.9141 60.6836 29.2031C60.6836 29.4922 60.75 29.7539 60.8828 29.9883C61.0156 30.2148 61.207 30.3945 61.457 30.5273C61.707 30.6523 62 30.7148 62.3359 30.7148C62.8438 30.7148 63.2852 30.6133 63.6602 30.4102C64.0352 30.207 64.3242 29.957 64.5273 29.6602C64.7383 29.3633 64.8477 29.082 64.8555 28.8164L65.7461 30.2461C65.6211 30.5664 65.4492 30.8984 65.2305 31.2422C65.0195 31.5859 64.75 31.9102 64.4219 32.2148C64.0938 32.5117 63.6992 32.7578 63.2383 32.9531C62.7773 33.1406 62.2305 33.2344 61.5977 33.2344C60.793 33.2344 60.0625 33.0742 59.4062 32.7539C58.7578 32.4258 58.2422 31.9766 57.8594 31.4062C57.4844 30.8281 57.2969 30.1719 57.2969 29.4375C57.2969 28.7734 57.4219 28.1836 57.6719 27.668C57.9219 27.1523 58.2891 26.7188 58.7734 26.3672C59.2656 26.0078 59.8789 25.7383 60.6133 25.5586C61.3477 25.3711 62.1992 25.2773 63.168 25.2773H65.125ZM77.5352 29.4961C77.5352 29.2539 77.4648 29.0352 77.3242 28.8398C77.1836 28.6445 76.9219 28.4648 76.5391 28.3008C76.1641 28.1289 75.6211 27.9727 74.9102 27.832C74.2695 27.6914 73.6719 27.5156 73.1172 27.3047C72.5703 27.0859 72.0938 26.8242 71.6875 26.5195C71.2891 26.2148 70.9766 25.8555 70.75 25.4414C70.5234 25.0195 70.4102 24.5391 70.4102 24C70.4102 23.4688 70.5234 22.9688 70.75 22.5C70.9844 22.0312 71.3164 21.6172 71.7461 21.2578C72.1836 20.8906 72.7148 20.6055 73.3398 20.4023C73.9727 20.1914 74.6836 20.0859 75.4727 20.0859C76.5742 20.0859 77.5195 20.2617 78.3086 20.6133C79.1055 20.9648 79.7148 21.4492 80.1367 22.0664C80.5664 22.6758 80.7812 23.3711 80.7812 24.1523H77.4062C77.4062 23.8242 77.3359 23.5312 77.1953 23.2734C77.0625 23.0078 76.8516 22.8008 76.5625 22.6523C76.2812 22.4961 75.9141 22.418 75.4609 22.418C75.0859 22.418 74.7617 22.4844 74.4883 22.6172C74.2148 22.7422 74.0039 22.9141 73.8555 23.1328C73.7148 23.3438 73.6445 23.5781 73.6445 23.8359C73.6445 24.0312 73.6836 24.207 73.7617 24.3633C73.8477 24.5117 73.9844 24.6484 74.1719 24.7734C74.3594 24.8984 74.6016 25.0156 74.8984 25.125C75.2031 25.2266 75.5781 25.3203 76.0234 25.4062C76.9375 25.5938 77.7539 25.8398 78.4727 26.1445C79.1914 26.4414 79.7617 26.8477 80.1836 27.3633C80.6055 27.8711 80.8164 28.5391 80.8164 29.3672C80.8164 29.9297 80.6914 30.4453 80.4414 30.9141C80.1914 31.3828 79.832 31.793 79.3633 32.1445C78.8945 32.4883 78.332 32.7578 77.6758 32.9531C77.0273 33.1406 76.2969 33.2344 75.4844 33.2344C74.3047 33.2344 73.3047 33.0234 72.4844 32.6016C71.6719 32.1797 71.0547 31.6445 70.6328 30.9961C70.2188 30.3398 70.0117 29.668 70.0117 28.9805H73.2109C73.2266 29.4414 73.3438 29.8125 73.5625 30.0938C73.7891 30.375 74.0742 30.5781 74.418 30.7031C74.7695 30.8281 75.1484 30.8906 75.5547 30.8906C75.9922 30.8906 76.3555 30.832 76.6445 30.7148C76.9336 30.5898 77.1523 30.4258 77.3008 30.2227C77.457 30.0117 77.5352 29.7695 77.5352 29.4961ZM86.3008 15V33H82.9258V15H86.3008ZM85.8203 26.2148H84.8945C84.9023 25.332 85.0195 24.5195 85.2461 23.7773C85.4727 23.0273 85.7969 22.3789 86.2188 21.832C86.6406 21.2773 87.1445 20.8477 87.7305 20.543C88.3242 20.2383 88.9805 20.0859 89.6992 20.0859C90.3242 20.0859 90.8906 20.1758 91.3984 20.3555C91.9141 20.5273 92.3555 20.8086 92.7227 21.1992C93.0977 21.582 93.3867 22.0859 93.5898 22.7109C93.793 23.3359 93.8945 24.0938 93.8945 24.9844V33H90.4961V24.9609C90.4961 24.3984 90.4141 23.957 90.25 23.6367C90.0938 23.3086 89.8633 23.0781 89.5586 22.9453C89.2617 22.8047 88.8945 22.7344 88.457 22.7344C87.9727 22.7344 87.5586 22.8242 87.2148 23.0039C86.8789 23.1836 86.6094 23.4336 86.4062 23.7539C86.2031 24.0664 86.0547 24.4336 85.9609 24.8555C85.8672 25.2773 85.8203 25.7305 85.8203 26.2148ZM104.488 20.3203H107.547V32.5781C107.547 33.7344 107.289 34.7148 106.773 35.5195C106.266 36.332 105.555 36.9453 104.641 37.3594C103.727 37.7812 102.664 37.9922 101.453 37.9922C100.922 37.9922 100.359 37.9219 99.7656 37.7812C99.1797 37.6406 98.6172 37.4219 98.0781 37.125C97.5469 36.8281 97.1016 36.4531 96.7422 36L98.2305 34.0078C98.6211 34.4609 99.0742 34.8125 99.5898 35.0625C100.105 35.3203 100.676 35.4492 101.301 35.4492C101.91 35.4492 102.426 35.3359 102.848 35.1094C103.27 34.8906 103.594 34.5664 103.82 34.1367C104.047 33.7148 104.16 33.2031 104.16 32.6016V23.25L104.488 20.3203ZM95.957 26.8125V26.5664C95.957 25.5977 96.0742 24.7188 96.3086 23.9297C96.5508 23.1328 96.8906 22.4492 97.3281 21.8789C97.7734 21.3086 98.3125 20.8672 98.9453 20.5547C99.5781 20.2422 100.293 20.0859 101.09 20.0859C101.934 20.0859 102.641 20.2422 103.211 20.5547C103.781 20.8672 104.25 21.3125 104.617 21.8906C104.984 22.4609 105.27 23.1367 105.473 23.918C105.684 24.6914 105.848 25.5391 105.965 26.4609V27C105.848 27.8828 105.672 28.7031 105.438 29.4609C105.203 30.2188 104.895 30.8828 104.512 31.4531C104.129 32.0156 103.652 32.4531 103.082 32.7656C102.52 33.0781 101.848 33.2344 101.066 33.2344C100.285 33.2344 99.5781 33.0742 98.9453 32.7539C98.3203 32.4336 97.7852 31.9844 97.3398 31.4062C96.8945 30.8281 96.5508 30.1484 96.3086 29.3672C96.0742 28.5859 95.957 27.7344 95.957 26.8125ZM99.332 26.5664V26.8125C99.332 27.3359 99.3828 27.8242 99.4844 28.2773C99.5859 28.7305 99.7422 29.1328 99.9531 29.4844C100.172 29.8281 100.441 30.0977 100.762 30.293C101.09 30.4805 101.477 30.5742 101.922 30.5742C102.539 30.5742 103.043 30.4453 103.434 30.1875C103.824 29.9219 104.117 29.5586 104.312 29.0977C104.508 28.6367 104.621 28.1055 104.652 27.5039V25.9688C104.637 25.4766 104.57 25.0352 104.453 24.6445C104.336 24.2461 104.172 23.9062 103.961 23.625C103.75 23.3438 103.477 23.125 103.141 22.9688C102.805 22.8125 102.406 22.7344 101.945 22.7344C101.5 22.7344 101.113 22.8359 100.785 23.0391C100.465 23.2344 100.195 23.5039 99.9766 23.8477C99.7656 24.1914 99.6055 24.5977 99.4961 25.0664C99.3867 25.5273 99.332 26.0273 99.332 26.5664ZM109.633 26.7891V26.543C109.633 25.6133 109.766 24.7578 110.031 23.9766C110.297 23.1875 110.684 22.5039 111.191 21.9258C111.699 21.3477 112.324 20.8984 113.066 20.5781C113.809 20.25 114.66 20.0859 115.621 20.0859C116.582 20.0859 117.438 20.25 118.188 20.5781C118.938 20.8984 119.566 21.3477 120.074 21.9258C120.59 22.5039 120.98 23.1875 121.246 23.9766C121.512 24.7578 121.645 25.6133 121.645 26.543V26.7891C121.645 27.7109 121.512 28.5664 121.246 29.3555C120.98 30.1367 120.59 30.8203 120.074 31.4062C119.566 31.9844 118.941 32.4336 118.199 32.7539C117.457 33.0742 116.605 33.2344 115.645 33.2344C114.684 33.2344 113.828 33.0742 113.078 32.7539C112.336 32.4336 111.707 31.9844 111.191 31.4062C110.684 30.8203 110.297 30.1367 110.031 29.3555C109.766 28.5664 109.633 27.7109 109.633 26.7891ZM113.008 26.543V26.7891C113.008 27.3203 113.055 27.8164 113.148 28.2773C113.242 28.7383 113.391 29.1445 113.594 29.4961C113.805 29.8398 114.078 30.1094 114.414 30.3047C114.75 30.5 115.16 30.5977 115.645 30.5977C116.113 30.5977 116.516 30.5 116.852 30.3047C117.188 30.1094 117.457 29.8398 117.66 29.4961C117.863 29.1445 118.012 28.7383 118.105 28.2773C118.207 27.8164 118.258 27.3203 118.258 26.7891V26.543C118.258 26.0273 118.207 25.543 118.105 25.0898C118.012 24.6289 117.859 24.2227 117.648 23.8711C117.445 23.5117 117.176 23.2305 116.84 23.0273C116.504 22.8242 116.098 22.7227 115.621 22.7227C115.145 22.7227 114.738 22.8242 114.402 23.0273C114.074 23.2305 113.805 23.5117 113.594 23.8711C113.391 24.2227 113.242 24.6289 113.148 25.0898C113.055 25.543 113.008 26.0273 113.008 26.543Z" fill="white"/>
<path d="M126.379 31.3711C126.379 30.8711 126.551 30.4531 126.895 30.1172C127.247 29.7812 127.711 29.6133 128.29 29.6133C128.868 29.6133 129.329 29.7812 129.672 30.1172C130.024 30.4531 130.2 30.8711 130.2 31.3711C130.2 31.8711 130.024 32.2891 129.672 32.625C129.329 32.9609 128.868 33.1289 128.29 33.1289C127.711 33.1289 127.247 32.9609 126.895 32.625C126.551 32.2891 126.379 31.8711 126.379 31.3711Z" fill="#D53F8C"/>
</svg>
